<svg version="1.1" id="Layer_1" xmlns="http://www.w3.org/2000/svg" xmlns:xlink="http://www.w3.org/1999/xlink" x="0px" y="0px"
	 viewBox="0 0 300 300" style="enable-background:new 0 0 300 300;" xml:space="preserve">
<style type="text/css">
	.st0{fill:#4AC7ED;}
	.st1{fill:#649AD3;}
	.st2{fill:#DA3F56;}
	.st3{fill:#EC5463;}
	.st4{fill:#F26C51;}
	.st5{fill:#E85E3C;}
	.st6{fill:#F8BB41;}
	.st7{fill:#4CD9B1;}
	.st8{fill:#3ABB9B;}
	.st9{fill:#A6CF6C;}
	.st10{fill:#92C154;}
	.st11{fill:#FFCD57;}
</style>
<g>
	<path class="st0" d="M150,150V15c38.6,0,75.3,16.5,101,45.4L150,150L150,150"/>
</g>
<g>
	<path class="st1" d="M150,150l101-89.6c10.4,11.8,18.7,25.2,24.5,39.9L150,150L150,150"/>
</g>
<g>
	<path class="st2" d="M150,150l125.5-49.8c1.4,3.5,2.7,7.1,3.8,10.8L150,150L150,150"/>
</g>
<g>
	<path class="st3" d="M150,150l129.2-39c4.1,13.7,6.1,27.9,5.7,42.2L150,150L150,150"/>
</g>
<g>
	<path class="st4" d="M150,150l135,3.2c-1,40.6-20.1,78.6-52.2,103.4L150,150L150,150"/>
</g>
<g>
	<path class="st5" d="M150,150l82.8,106.6c-10.5,8.2-22.2,14.7-34.7,19.5L150,150L150,150"/>
</g>
<g>
	<path class="st6" d="M150,150l48.1,126.1c-14.2,5.4-29.3,8.4-44.5,8.8L150,150L150,150"/>
</g>
<g>
	<path class="st7" d="M150,150L43.6,66.9C69.2,34.2,108.4,15,150,15V150L150,150"/>
</g>
<g>
	<path class="st8" d="M150,150L28.5,91.1c4.2-8.6,9.2-16.7,15-24.2L150,150L150,150"/>
</g>
<g>
	<path class="st9" d="M150,150L26.4,204.4c-15.9-36.2-15.2-77.6,2.1-113.3L150,150L150,150"/>
</g>
<g>
	<path class="st10" d="M150,150L49.5,240.2c-9.5-10.6-17.3-22.7-23.1-35.8L150,150L150,150"/>
</g>
<g>
	<path class="st11" d="M150,150l3.6,135c-39.6,1-77.6-15.3-104-44.8L150,150L150,150"/>
</g>
</svg>
