<svg id="Layer_1" data-name="Layer 1" xmlns="http://www.w3.org/2000/svg" viewBox="0 0 952.99 124.59"><defs><style>.cls-1{fill:#008d4c;}.cls-2{fill:#222d32;}</style></defs><path class="cls-1" d="M509 34c4.7-6.6 14-11 23.5-11 21.2 0 35.6 16.5 35.6 38.3 0 21.5-14.5 38.3-35.5 38.3-10.5 0-19.5-4.6-23.7-10.8 0 6.8-2.5 10.2-7.4 10.2-5 0-7.4-3-7.4-8.6V9q0-8.6 7.6-8.6T509 9v25zm0 27.3c0 13 9.4 23.2 22 23.2 12.8 0 22-10.2 22-23.2 0-12.6-9.2-23.2-22-23.2-12.6 0-22 10.8-22 23.3zM628.6 88c-3.2 6.4-12.3 11.8-22.8 11.8-17.3 0-30.4-11.8-30.4-34.6v-34c0-5.6 3-8.3 7.6-8.3 5 0 7.6 2.6 7.6 8.2v33.4c0 13.5 7.4 20.6 19 20.6s18.4-8 18.4-21.7V31.2c0-5.6 3.2-8.3 8-8.3s7.3 2.6 7.3 8v58.8c0 4.7-2 8-7 8-5.5 0-7.2-3.3-7.7-9.8zM709.3 9q0-8.5 7.6-8.5t7.4 8.5v81.5c0 5.6-2.4 8.6-7.4 8.6-4.8 0-7.4-3.3-7.4-10-4.2 6-13 10.8-23.7 10.8-21 0-35.7-16.8-35.7-38.4 0-21.8 14.4-38.3 35.6-38.3 9.5 0 18.8 4.5 23.3 11V9zm-43.8 52.4c0 13 9 23.3 22 23.3 12.6 0 21.8-10.2 21.8-23.3 0-12.5-9.2-23.2-21.8-23.2-13 0-22 10.7-22 23.2zM805.5 90.8c0 22.3-20.8 33.8-37.5 33.8-14.8 0-21.4-5-27-10.5-8-7.8 2.8-17 9-10.8a25.4 25.4 0 0 0 17.7 7.3c10.4 0 22.3-6 22.3-19.7v-2c-4.2 7-13.6 11-23.4 11-21 0-35.5-16.7-35.5-38.4S746 23 766.8 23a31 31 0 0 1 24 11c0-6.6 2.5-10 7.3-10 5 0 7.4 3 7.4 8.5v58.3zm-59-29.4c0 12.7 9 23.3 21.7 23.3s22-10.6 22-23.3c0-13-9.2-23.2-22-23.2s-21.8 10.3-21.8 23.2zM827.6 64c1.7 12.3 9 21 23.2 21a25 25 0 0 0 16.8-6 8.8 8.8 0 0 1 6.5-2.7 7.2 7.2 0 0 1 7.2 7.2c0 7.2-12.8 16.3-30.8 16.3a38 38 0 0 1-38.2-38.3c0-21.8 17-38.5 38.2-38.5 22 0 35.8 17 35.8 30.7 0 6.6-4 10.2-11.5 10.2h-47zM871 52.2c-1.6-9-9.8-14.8-20.5-14.8-10.2 0-19.3 5.7-22 14.8H871zM900.8 23V8.4c0-5.7 2.5-8.5 7.4-8.5 5 0 7.8 2.8 7.8 8.5V23h8c4.4 0 7 2.4 7 6.2 0 4-2.3 6-7 6h-8v56.4c0 5.5-2.7 8-7.7 8s-7.5-2.5-7.5-8V35.2h-7c-4.3 0-6.5-2.2-6.5-6 0-4.3 2.2-6.3 6.6-6.3h6.8z"/><path class="cls-2" d="M15 114.7q0 8.5-7.5 8.5T0 114.7V32.3c0-5.7 2.4-8.7 7.4-8.7 4.8 0 7.4 3.5 7.4 10.3C19 27.6 28 23 38.5 23 59.5 23 74 39.8 74 61.3 74 83 59.8 99.6 38.6 99.6c-9.6 0-19-4.4-23.4-11v26zm44-53.4c0-13-9.2-23.2-22-23.2-12.7 0-22 10.3-22 23.3 0 12.6 9.3 23.3 22 23.3 12.8 0 22-10.7 22-23.3zM95.6 63.7c1.7 12.4 9 21.2 23.2 21.2a25 25 0 0 0 16.8-6.2A8.8 8.8 0 0 1 142 76a7.2 7.2 0 0 1 7 7.3c0 7.2-12.6 16.3-30.7 16.3a38 38 0 0 1-38-38.3c0-21.8 17-38.4 38-38.4 22 0 36 17 36 30.5-.2 6.6-4.2 10.2-11.6 10.2h-47zM139 52c-1.7-9-9.8-14.7-20.5-14.7-10.2 0-19.3 5.7-22 14.8H139zM199 99.7a38 38 0 0 1-38-38.5c0-21.6 16.7-38.4 38-38.4a38.5 38.5 0 1 1 0 77zm-23-38.5a23.2 23.2 0 0 0 23 23.3 23.2 23.2 0 1 0 0-46.5 23.2 23.2 0 0 0-23 23.2zM260.3 114.7q0 8.5-7.5 8.5t-7.6-8.5V32.2c0-5.6 2.4-8.6 7.4-8.6S260 27 260 33.8c4.2-6 13.2-10.8 23.7-10.8 21 0 35.7 16.8 35.7 38.3 0 21.8-14.5 38.3-35.7 38.3-9.6 0-18.8-4.4-23.4-11v26zM304 61.3c0-13-9-23.2-22-23.2-12.4 0-21.7 10.3-21.7 23.3 0 12.6 9.3 23.2 21.8 23.2 13 0 22-10.7 22-23.2zM342.3 91.6c0 5.5-2.7 8-7.7 8s-7.5-2.5-7.5-8v-83c0-5.8 2.6-8.6 7.4-8.6 5.2 0 8 2.8 8 8.5v83zM364.4 63.7c1.8 12.4 9 21.2 23.3 21.2a25 25 0 0 0 16.8-6.2A8.8 8.8 0 0 1 411 76a7.2 7.2 0 0 1 7 7.3c0 7.2-12.7 16.3-30.8 16.3a38 38 0 0 1-38-38.3c0-21.8 17-38.5 38-38.5 22 0 35.8 17 35.8 30.7 0 6.6-4 10.2-11.4 10.2h-47.2zM408 52c-1.8-9-10-14.7-20.6-14.7-10.2 0-19.3 5.7-22.2 14.8H408zM455.4 99.8c-9 0-20.8-3-26-9.5a6.4 6.4 0 0 1-1.4-4 6.7 6.7 0 0 1 6.3-6.8 5.4 5.4 0 0 1 3.3 1c5 3.8 12 6.6 18.3 6.6 8.6 0 12.8-4 12.8-9.6 0-14.2-40-4-40-32 0-12 9.4-22.4 26.3-22.4 9 0 19 3 23.6 8.8a5.8 5.8 0 0 1 1.2 3.6 6 6 0 0 1-6 6.2 5.8 5.8 0 0 1-3-1 26.7 26.7 0 0 0-15.7-5c-7.3 0-12 4-12 9 0 12.8 40 3 40 32.2 0 13-9.8 23-27.6 23z"/><path class="cls-1" d="M942 2.8H940v7.6a.6.6 0 0 1-1.2 0V2.7H936a.5.5 0 0 1-.4-.5.5.5 0 0 1 .4-.5h6a.5.5 0 0 1 .6.6.5.5 0 0 1-.5.4zM952.4 11a.6.6 0 0 1-.5-.6v-7l-3.2 7.4a.3.3 0 0 1-.3.2.3.3 0 0 1-.2-.2l-3-7.4v7a.6.6 0 0 1-1.2 0V2.6a1 1 0 0 1 1-1 1 1 0 0 1 1 .6l2.5 6.4 2.6-6.4a1 1 0 0 1 1-.5 1 1 0 0 1 1 1v7.7a.6.6 0 0 1-.6.6z"/></svg>