<svg id="Layer_1" xmlns="http://www.w3.org/2000/svg" viewBox="0 0 953 124.6"><style>.st0{fill:#008D4C;} .st1{fill:#222D32;}</style><path class="st0" d="M509.1 34c4.6-6.6 13.8-11 23.4-11 21.2 0 35.7 16.5 35.7 38.3 0 21.5-14.6 38.3-35.7 38.3-10.5 0-19.5-4.7-23.7-10.8 0 6.8-2.5 10.2-7.4 10.2-5 0-7.4-3-7.4-8.6V8.9c0-5.7 2.5-8.5 7.5-8.5s7.5 2.8 7.5 8.5V34zm0 27.3c0 13 9.3 23.2 21.8 23.2 12.9 0 22-10.2 22-23.2 0-12.6-9.1-23.2-22-23.2-12.5 0-21.8 10.7-21.8 23.2zM628.6 88c-3.2 6.3-12.4 11.7-22.8 11.7-17.3 0-30.4-11.7-30.4-34.5V31.3c0-5.7 2.9-8.4 7.6-8.4 5.1 0 7.6 2.7 7.6 8.2v33.4c0 13.5 7.4 20.6 18.8 20.6 11.7 0 18.5-7.9 18.5-21.7V31.2c0-5.5 3.2-8.2 7.9-8.2 4.9 0 7.4 2.7 7.4 8.1v58.8c0 4.8-2.1 7.9-7 7.9-5.4-.1-7.1-3.3-7.6-9.8zM709.3 9c0-5.7 2.5-8.5 7.5-8.5s7.5 2.8 7.5 8.5v81.5c0 5.7-2.4 8.6-7.4 8.6-4.9 0-7.4-3.5-7.4-10.2-4.2 6.1-13.2 10.8-23.7 10.8-21 0-35.7-16.8-35.7-38.3 0-21.8 14.4-38.3 35.7-38.3 9.6 0 18.8 4.4 23.4 11V9zm-43.8 52.4c0 13 9.1 23.2 22 23.2 12.6 0 21.8-10.2 21.8-23.2 0-12.6-9.3-23.2-21.8-23.2-12.9 0-22 10.7-22 23.2zM805.5 90.8c0 22.3-20.8 33.8-37.4 33.8-14.9 0-21.5-4.9-27.1-10.5-7.9-7.9 2.8-17.1 9-10.9 1.8 1.7 7.7 7.3 17.7 7.3 10.4 0 22.3-5.8 22.3-19.7v-2.1c-4.2 6.9-13.7 11-23.4 11-21 0-35.5-16.6-35.5-38.3 0-21.7 14.6-38.5 35.5-38.5 9 0 18.1 3.8 24 11.2 0-6.8 2.5-10.2 7.4-10.2 5 0 7.4 3 7.4 8.6v58.3zm-59.1-29.4c0 12.7 9.1 23.2 21.8 23.2 12.7 0 21.8-10.5 21.8-23.2 0-12.9-9.1-23.2-21.8-23.2-12.7 0-21.8 10.3-21.8 23.2zM827.6 63.9c1.7 12.4 9 21.2 23.2 21.2 7.1 0 12.7-2.5 16.8-6.1 2-1.9 3.9-2.7 6.4-2.7 3.6 0 7.1 3 7.1 7.2 0 7.2-12.7 16.3-30.8 16.3-21.2 0-38.2-17-38.2-38.3 0-21.8 17-38.5 38.2-38.5 22 0 35.8 17 35.8 30.6 0 6.6-4.1 10.2-11.5 10.2h-47zm43.5-11.6c-1.7-9.1-9.9-14.8-20.6-14.8-10.2 0-19.3 5.7-22.1 14.8h42.7zM900.8 22.9V8.5c0-5.7 2.5-8.5 7.4-8.5 5.2 0 7.9 2.8 7.9 8.5v14.4h8c4.4 0 7.1 2.5 7.1 6.3 0 3.9-2.4 6-7.1 6h-8v56.5c0 5.5-2.7 8-7.7 8s-7.5-2.5-7.5-8V35.2H894c-4.4 0-6.6-2.2-6.6-6 0-4.2 2.2-6.3 6.6-6.3h6.8z"/><g><path class="st1" d="M15.1 114.7c0 5.7-2.5 8.5-7.5 8.5S0 120.4 0 114.7V32.3c0-5.7 2.4-8.6 7.4-8.6 4.9 0 7.4 3.5 7.4 10.2C19 27.7 28 23 38.5 23c21 0 35.7 16.8 35.7 38.3 0 21.8-14.4 38.3-35.7 38.3-9.6 0-18.8-4.4-23.4-11v26.1zm43.8-53.4c0-13-9.1-23.2-22-23.2-12.6 0-21.8 10.2-21.8 23.2 0 12.6 9.3 23.2 21.8 23.2 12.9.1 22-10.6 22-23.2zM95.6 63.7c1.7 12.4 9 21.2 23.2 21.2 7.1 0 12.7-2.5 16.8-6.1 2-1.9 3.9-2.7 6.4-2.7 3.6 0 7.1 3 7.1 7.2 0 7.2-12.7 16.3-30.8 16.3-21.2 0-38.2-17-38.2-38.3 0-21.8 17-38.5 38.2-38.5 22 0 35.8 17 35.8 30.6 0 6.6-4.1 10.2-11.5 10.2h-47zm43.5-11.6c-1.7-9.1-9.9-14.8-20.6-14.8-10.2 0-19.3 5.7-22.1 14.8h42.7zM199.1 99.7c-21.4 0-38.2-17.1-38.2-38.5 0-21.7 16.8-38.5 38.2-38.5 21.2 0 38.6 16.8 38.6 38.5 0 21.4-17.4 38.5-38.6 38.5zM176 61.2c0 12.7 10.2 23.2 23.1 23.2s23.4-10.5 23.4-23.2S212 38 199.1 38 176 48.5 176 61.2zM260.3 114.7c0 5.7-2.5 8.5-7.5 8.5s-7.5-2.8-7.5-8.5V32.2c0-5.7 2.4-8.6 7.4-8.6 4.9 0 7.4 3.5 7.4 10.2 4.2-6.1 13.2-10.8 23.7-10.8 21 0 35.7 16.8 35.7 38.3 0 21.8-14.4 38.3-35.7 38.3-9.6 0-18.8-4.4-23.4-11v26.1zm43.8-53.4c0-13-9.1-23.2-22-23.2-12.6 0-21.8 10.2-21.8 23.2 0 12.6 9.3 23.2 21.8 23.2 12.9 0 22-10.7 22-23.2zM342.3 91.6c0 5.5-2.7 8-7.7 8s-7.5-2.5-7.5-8V8.5c0-5.7 2.5-8.5 7.4-8.5 5.2 0 7.9 2.8 7.9 8.5v83.1zM364.4 63.7c1.7 12.4 9 21.2 23.2 21.2 7.1 0 12.7-2.5 16.8-6.1 2-1.9 3.9-2.7 6.4-2.7 3.6 0 7.1 3 7.1 7.2 0 7.2-12.7 16.3-30.8 16.3-21.2 0-38.2-17-38.2-38.3 0-21.8 17-38.5 38.2-38.5 22 0 35.8 17 35.8 30.6 0 6.6-4.1 10.2-11.5 10.2h-47zm43.5-11.6c-1.7-9.1-9.9-14.8-20.6-14.8-10.2 0-19.3 5.7-22.1 14.8h42.7zM455.3 99.8c-8.9 0-20.8-3-26-9.5-.8-1.1-1.4-2.4-1.4-3.9 0-3.8 3-6.8 6.3-6.8 1.1 0 2.3.3 3.3 1.1 5.1 3.8 12 6.5 18.3 6.5 8.7 0 12.9-4.1 12.9-9.7 0-14.2-40.1-3.9-40.1-32.1 0-12 9.5-22.3 26.4-22.3 8.9 0 19 3 23.5 8.8.8 1.1 1.2 2.3 1.2 3.6 0 3.5-2.7 6.2-5.9 6.2-1 0-2.1-.3-3-.9-4.3-3.2-9.9-5.1-15.8-5.1-7.4 0-12.1 3.9-12.1 8.9 0 12.9 40 3.2 40 32.3.1 12.9-9.7 22.9-27.6 22.9z"/></g><g><path class="st0" d="M942.2 2.8h-2.5v7.6c0 .3-.2.6-.6.6-.3 0-.6-.2-.6-.6V2.8H936c-.3 0-.5-.2-.5-.5s.2-.5.5-.5h6.1c.3 0 .5.2.5.5 0 .2-.2.5-.4.5zM952.4 10.9c-.3 0-.6-.2-.6-.6v-7l-3.1 7.4c0 .1-.2.2-.3.2-.1 0-.2-.1-.3-.2L945 3.3v7c0 .3-.2.6-.6.6-.3 0-.6-.2-.6-.6V2.6c0-.5.4-.9.9-.9.4 0 .8.2.9.6l2.6 6.4 2.6-6.4c.2-.4.5-.6.9-.6.5 0 .9.4.9.9v7.8c.4.3.1.5-.2.5z"/></g></svg>