<?xml version="1.0" encoding="utf-8"?>
<!-- Generator: Adobe Illustrator 19.0.0, SVG Export Plug-In . SVG Version: 6.00 Build 0)  -->
<svg version="1.1" id="Layer_1" xmlns="http://www.w3.org/2000/svg" xmlns:xlink="http://www.w3.org/1999/xlink" x="0px" y="0px"
	 viewBox="0 0 953 124.6" style="enable-background:new 0 0 953 124.6;" xml:space="preserve">
<style type="text/css">
	.st0{fill:#008D4C;}
	.st1{fill:#222D32;}
</style>
<g>
	<g>
		<g>
			<path class="st0" d="M509.1,34c4.6-6.6,13.8-11,23.4-11c21.2,0,35.7,16.5,35.7,38.3c0,21.5-14.6,38.3-35.7,38.3
				c-10.5,0-19.5-4.7-23.7-10.8c0,6.8-2.5,10.2-7.4,10.2c-5,0-7.4-3-7.4-8.6V8.9c0-5.7,2.5-8.5,7.5-8.5c5,0,7.5,2.8,7.5,8.5V34z
				 M509.1,61.3c0,13,9.3,23.2,21.8,23.2c12.9,0,22-10.2,22-23.2c0-12.6-9.1-23.2-22-23.2C518.4,38.1,509.1,48.8,509.1,61.3z"/>
			<path class="st0" d="M628.6,88c-3.2,6.3-12.4,11.7-22.8,11.7c-17.3,0-30.4-11.7-30.4-34.5V31.3c0-5.7,2.9-8.4,7.6-8.4
				c5.1,0,7.6,2.7,7.6,8.2v33.4c0,13.5,7.4,20.6,18.8,20.6c11.7,0,18.5-7.9,18.5-21.7V31.2c0-5.5,3.2-8.2,7.9-8.2
				c4.9,0,7.4,2.7,7.4,8.1v58.8c0,4.8-2.1,7.9-7,7.9C630.8,97.7,629.1,94.5,628.6,88z"/>
			<path class="st0" d="M709.3,9c0-5.7,2.5-8.5,7.5-8.5c5,0,7.5,2.8,7.5,8.5v81.5c0,5.7-2.4,8.6-7.4,8.6c-4.9,0-7.4-3.5-7.4-10.2
				c-4.2,6.1-13.2,10.8-23.7,10.8c-21,0-35.7-16.8-35.7-38.3c0-21.8,14.4-38.3,35.7-38.3c9.6,0,18.8,4.4,23.4,11V9z M665.5,61.4
				c0,13,9.1,23.2,22,23.2c12.6,0,21.8-10.2,21.8-23.2c0-12.6-9.3-23.2-21.8-23.2C674.6,38.2,665.5,48.9,665.5,61.4z"/>
			<path class="st0" d="M805.5,90.8c0,22.3-20.8,33.8-37.4,33.8c-14.9,0-21.5-4.9-27.1-10.5c-7.9-7.9,2.8-17.1,9-10.9
				c1.8,1.7,7.7,7.3,17.7,7.3c10.4,0,22.3-5.8,22.3-19.7v-2.1c-4.2,6.9-13.7,11-23.4,11c-21,0-35.5-16.6-35.5-38.3
				c0-21.7,14.6-38.5,35.5-38.5c9,0,18.1,3.8,24,11.2c0-6.8,2.5-10.2,7.4-10.2c5,0,7.4,3,7.4,8.6V90.8z M746.4,61.4
				c0,12.7,9.1,23.2,21.8,23.2c12.7,0,21.8-10.5,21.8-23.2c0-12.9-9.1-23.2-21.8-23.2C755.5,38.2,746.4,48.5,746.4,61.4z"/>
			<path class="st0" d="M827.6,63.9c1.7,12.4,9,21.2,23.2,21.2c7.1,0,12.7-2.5,16.8-6.1c2-1.9,3.9-2.7,6.4-2.7c3.6,0,7.1,3,7.1,7.2
				c0,7.2-12.7,16.3-30.8,16.3c-21.2,0-38.2-17-38.2-38.3c0-21.8,17-38.5,38.2-38.5c22,0,35.8,17,35.8,30.6
				c0,6.6-4.1,10.2-11.5,10.2H827.6z M871.1,52.3c-1.7-9.1-9.9-14.8-20.6-14.8c-10.2,0-19.3,5.7-22.1,14.8H871.1z"/>
			<path class="st0" d="M900.8,22.9V8.5c0-5.7,2.5-8.5,7.4-8.5c5.2,0,7.9,2.8,7.9,8.5v14.4h8c4.4,0,7.1,2.5,7.1,6.3
				c0,3.9-2.4,6-7.1,6h-8v56.5c0,5.5-2.7,8-7.7,8c-5,0-7.5-2.5-7.5-8V35.2h-6.9c-4.4,0-6.6-2.2-6.6-6c0-4.2,2.2-6.3,6.6-6.3H900.8z"
				/>
		</g>
		<g>
			<path class="st1" d="M15.1,114.7c0,5.7-2.5,8.5-7.5,8.5S0,120.4,0,114.7V32.3c0-5.7,2.4-8.6,7.4-8.6c4.9,0,7.4,3.5,7.4,10.2
				C19,27.7,28,23,38.5,23c21,0,35.7,16.8,35.7,38.3c0,21.8-14.4,38.3-35.7,38.3c-9.6,0-18.8-4.4-23.4-11V114.7z M58.9,61.3
				c0-13-9.1-23.2-22-23.2c-12.6,0-21.8,10.2-21.8,23.2c0,12.6,9.3,23.2,21.8,23.2C49.8,84.6,58.9,73.9,58.9,61.3z"/>
			<path class="st1" d="M95.6,63.7c1.7,12.4,9,21.2,23.2,21.2c7.1,0,12.7-2.5,16.8-6.1c2-1.9,3.9-2.7,6.4-2.7c3.6,0,7.1,3,7.1,7.2
				c0,7.2-12.7,16.3-30.8,16.3c-21.2,0-38.2-17-38.2-38.3c0-21.8,17-38.5,38.2-38.5c22,0,35.8,17,35.8,30.6
				c0,6.6-4.1,10.2-11.5,10.2H95.6z M139.1,52.1c-1.7-9.1-9.9-14.8-20.6-14.8c-10.2,0-19.3,5.7-22.1,14.8H139.1z"/>
			<path class="st1" d="M199.1,99.7c-21.4,0-38.2-17.1-38.2-38.5c0-21.7,16.8-38.5,38.2-38.5c21.2,0,38.6,16.8,38.6,38.5
				C237.7,82.6,220.3,99.7,199.1,99.7z M176,61.2c0,12.7,10.2,23.2,23.1,23.2s23.4-10.5,23.4-23.2S212,38,199.1,38
				S176,48.5,176,61.2z"/>
			<path class="st1" d="M260.3,114.7c0,5.7-2.5,8.5-7.5,8.5c-5,0-7.5-2.8-7.5-8.5V32.2c0-5.7,2.4-8.6,7.4-8.6
				c4.9,0,7.4,3.5,7.4,10.2c4.2-6.1,13.2-10.8,23.7-10.8c21,0,35.7,16.8,35.7,38.3c0,21.8-14.4,38.3-35.7,38.3
				c-9.6,0-18.8-4.4-23.4-11V114.7z M304.1,61.3c0-13-9.1-23.2-22-23.2c-12.6,0-21.8,10.2-21.8,23.2c0,12.6,9.3,23.2,21.8,23.2
				C295,84.5,304.1,73.8,304.1,61.3z"/>
			<path class="st1" d="M342.3,91.6c0,5.5-2.7,8-7.7,8c-5,0-7.5-2.5-7.5-8V8.5c0-5.7,2.5-8.5,7.4-8.5c5.2,0,7.9,2.8,7.9,8.5V91.6z"
				/>
			<path class="st1" d="M364.4,63.7c1.7,12.4,9,21.2,23.2,21.2c7.1,0,12.7-2.5,16.8-6.1c2-1.9,3.9-2.7,6.4-2.7c3.6,0,7.1,3,7.1,7.2
				c0,7.2-12.7,16.3-30.8,16.3c-21.2,0-38.2-17-38.2-38.3c0-21.8,17-38.5,38.2-38.5c22,0,35.8,17,35.8,30.6
				c0,6.6-4.1,10.2-11.5,10.2H364.4z M407.9,52.1c-1.7-9.1-9.9-14.8-20.6-14.8c-10.2,0-19.3,5.7-22.1,14.8H407.9z"/>
			<g>
				<path class="st1" d="M455.3,99.8c-8.9,0-20.8-3-26-9.5c-0.8-1.1-1.4-2.4-1.4-3.9c0-3.8,3-6.8,6.3-6.8c1.1,0,2.3,0.3,3.3,1.1
					c5.1,3.8,12,6.5,18.3,6.5c8.7,0,12.9-4.1,12.9-9.7c0-14.2-40.1-3.9-40.1-32.1c0-12,9.5-22.3,26.4-22.3c8.9,0,19,3,23.5,8.8
					c0.8,1.1,1.2,2.3,1.2,3.6c0,3.5-2.7,6.2-5.9,6.2c-1,0-2.1-0.3-3-0.9c-4.3-3.2-9.9-5.1-15.8-5.1c-7.4,0-12.1,3.9-12.1,8.9
					c0,12.9,40,3.2,40,32.3C483,89.8,473.2,99.8,455.3,99.8z"/>
			</g>
		</g>
	</g>
	<g>
		<path class="st0" d="M942.2,2.8h-2.5v7.6c0,0.3-0.2,0.6-0.6,0.6c-0.3,0-0.6-0.2-0.6-0.6V2.8h-2.5c-0.3,0-0.5-0.2-0.5-0.5
			c0-0.3,0.2-0.5,0.5-0.5h6.1c0.3,0,0.5,0.2,0.5,0.5C942.6,2.5,942.4,2.8,942.2,2.8z"/>
		<path class="st0" d="M952.4,10.9c-0.3,0-0.6-0.2-0.6-0.6v-7l-3.1,7.4c0,0.1-0.2,0.2-0.3,0.2c-0.1,0-0.2-0.1-0.3-0.2l-3.1-7.4v7
			c0,0.3-0.2,0.6-0.6,0.6c-0.3,0-0.6-0.2-0.6-0.6V2.6c0-0.5,0.4-0.9,0.9-0.9c0.4,0,0.8,0.2,0.9,0.6l2.6,6.4l2.6-6.4
			c0.2-0.4,0.5-0.6,0.9-0.6c0.5,0,0.9,0.4,0.9,0.9v7.8C953,10.7,952.7,10.9,952.4,10.9z"/>
	</g>
</g>
</svg>
